<svg width="1024" height="1024" viewBox="0 0 1024 1024" fill="none" xmlns="http://www.w3.org/2000/svg">
<g clip-path="url(#clip0_17_8)">
<rect width="1024" height="1024" rx="150" fill="#D9D9D9"/>
<path d="M122.581 962V816.263H273.181L149.3 410.627C127.439 398.482 109.423 380.67 95.2541 357.19C81.0847 333.71 74 308.61 74 281.892C74 241.409 88.1694 206.999 116.508 178.661C144.847 150.323 179.258 136.154 219.742 136.154C251.32 136.154 279.456 145.263 304.152 163.48C328.847 181.697 346.052 204.975 355.769 233.313H511.227V184.734C511.227 170.97 515.883 159.432 525.194 150.121C534.505 140.81 546.043 136.154 559.808 136.154C567.095 136.154 574.18 137.774 581.062 141.012C587.944 144.251 593.814 149.109 598.673 155.586L681.26 77.8595C688.547 70.5726 697.251 65.9171 707.372 63.893C717.493 61.8689 727.412 63.2858 737.128 68.1437L926.593 155.586C936.309 160.444 942.989 167.529 946.633 176.84C950.276 186.151 950.074 195.259 946.025 204.165C941.167 213.881 934.082 220.156 924.771 222.99C915.46 225.823 906.351 225.216 897.444 221.168L722.554 141.012L608.389 247.887V315.897L722.554 420.343L897.444 340.187C906.351 336.139 915.662 335.734 925.378 338.972C935.095 342.211 941.977 348.283 946.025 357.19C950.883 366.905 951.288 376.216 947.24 385.123C943.191 394.029 936.309 400.911 926.593 405.769L737.128 495.64C727.412 500.498 717.493 501.915 707.372 499.891C697.251 497.867 688.547 493.211 681.26 485.924L598.673 408.198C593.814 413.056 587.944 417.509 581.062 421.557C574.18 425.605 567.095 427.629 559.808 427.629C546.043 427.629 534.505 422.974 525.194 413.663C515.883 404.352 511.227 392.814 511.227 379.05V330.471H355.769C353.34 336.948 350.708 343.021 347.874 348.688C345.04 354.356 341.194 360.428 336.336 366.905L579.24 816.263H754.131V962H122.581ZM254.356 316.505C263.668 307.194 268.323 295.656 268.323 281.892C268.323 268.128 263.668 256.59 254.356 247.279C245.045 237.968 233.507 233.313 219.742 233.313C205.978 233.313 194.44 237.968 185.129 247.279C175.817 256.59 171.162 268.128 171.162 281.892C171.162 295.656 175.817 307.194 185.129 316.505C194.44 325.816 205.978 330.471 219.742 330.471C233.507 330.471 245.045 325.816 254.356 316.505ZM372.772 816.263H467.504L258.607 427.629H253.749L372.772 816.263Z" fill="#27272A"/>
</g>
<defs>
<clipPath id="clip0_17_8">
<rect width="1024" height="1024" fill="white"/>
</clipPath>
</defs>
</svg>
